<?xml version="1.0" encoding="UTF-8"?>
<svg id="_Слой_2" data-name="Слой 2" xmlns="http://www.w3.org/2000/svg" viewBox="0 0 186.39 270.67">
  <defs>
    <style>
      .cls-1 {
        fill: #0951ff;
      }
    </style>
  </defs>
  <g id="_Слой_2-2" data-name=" Слой 2">
    <g id="_Слой_1-2" data-name=" Слой 1-2">
      <path class="cls-1" d="M138.56,18.87C129.46,9.45,100.33-.81,85.79,.05,45.75,2.39,31.2,25.93,29.38,47.11c-1.82,21.18-5.46,25.89-12.74,37.66C9.36,96.53,1.75,119.49,.26,145.95c-1.5,26.45,3.64,63.54,10.92,87.07,7.28,23.53,21.84,37.66,45.49,37.66s61.87-4.71,87.34-18.83c25.48-14.12,30.93-30.59,38.21-42.36,7.28-11.77,5.46-56.48-9.1-70.59-14.56-14.12-23.66-18.83-25.48-32.95-1.33-10.37,5.46-30.59,5.46-44.72s-5.46-32.95-14.56-42.36h0ZM54.86,105.93s-9.1-21.18-9.1-37.66,7.28-42.36,27.3-49.42c20.02-7.06,30.12-2.35,35.07,0s28.58,16.47,28.58,28.24,1.82,30.59-7.28,44.72c-9.1,14.12-14.52,18.83-27.26,21.18s-21.84,7.06-27.3,9.41c-5.46,2.35-12.74,4.71-20.02-16.47Zm112.82,51.78c1.82,9.41,2.88,33.4,0,44.63-3.64,14.21-9.1,18.9-30.93,28.31-30.59,13.19-50.72,7.06-56.3,0-5.57-7.06-20.96-31.61-20.65-46.55,.52-24.04,.52-38.16,7.8-42.87,0,0,5.6-8.01,21.91-9.89,16.3-1.88,49.64-.47,56.63,0s19.77,17.23,21.54,26.36h0Z"/>
    </g>
  </g>
</svg>