<svg width="333" height="270" viewBox="0 0 333 270" fill="none" xmlns="http://www.w3.org/2000/svg">
<g filter="url(#filter0_f_510_285)">
<path d="M310.418 169.137C294.57 172.133 267.838 191.128 269.816 168.141C271.793 145.147 275.905 110.739 276.751 59.1782C277.553 10.1718 245.945 17.4295 198.519 24.1929C149.603 31.166 131.14 14.134 124.616 43.1648C118.227 71.5665 76.7109 188.132 66.3224 178.769C55.934 169.407 55.9115 144.151 45.0212 148.78C34.1309 153.409 15.3087 162.142 19.2709 173.212C23.2331 184.275 26.2065 213.126 31.8914 236.547C37.5837 259.96 65.7532 247.115 65.7532 247.115C78.5684 244.119 82.6504 245.115 99.6375 240.262C116.625 235.408 74.7261 218.129 61.5664 203.284C48.4066 188.439 90.5747 191.135 94.799 178.253C99.0234 165.37 169.803 184.14 204.459 189.135C239.122 194.131 266.85 191.135 268.827 207.126C270.804 223.117 271.8 252.111 288.413 250.628C305.026 249.145 328.252 256.11 325.278 240.112C322.305 224.121 326.267 166.141 310.426 169.137H310.418ZM176.589 148.121C160.74 143.125 154.299 129.643 152.876 120.685C143.596 62.1517 331.532 -32.94 215.349 147.14C207.222 159.738 192.437 153.117 176.589 148.113V148.121Z" fill="#70F7FF"/>
</g>
<defs>
<filter id="filter0_f_510_285" x="0.00718498" y="0.617537" width="344.255" height="269.011" filterUnits="userSpaceOnUse" color-interpolation-filters="sRGB">
<feFlood flood-opacity="0" result="BackgroundImageFix"/>
<feBlend mode="normal" in="SourceGraphic" in2="BackgroundImageFix" result="shape"/>
<feGaussianBlur stdDeviation="9.36237" result="effect1_foregroundBlur_510_285"/>
</filter>
</defs>
</svg>
