<svg width="1440" height="2892" viewBox="0 0 1440 2892" fill="none" xmlns="http://www.w3.org/2000/svg">
<path fill-rule="evenodd" clip-rule="evenodd" d="M0 0V979H482V0H0ZM241 978.183C50.5002 978.183 1.49852 759.39 1.49852 489.504C1.49852 219.618 53.4973 0.816701 241 0.816701C428.503 0.816701 480.501 219.61 480.501 489.496C480.501 759.382 432.504 978.176 241 978.176V978.183Z" fill="url(#paint0_linear_569_44)"/>
<path d="M267.524 967H213.919V979.014H267.524V967Z" fill="url(#paint1_linear_569_44)"/>
<path d="M267.442 0H213.837V12.0138H267.442V0Z" fill="url(#paint2_linear_569_44)"/>
<path fill-rule="evenodd" clip-rule="evenodd" d="M481.6 260.274V836.06H802.483V260.274H481.6ZM642.042 835.581C515.223 835.581 482.597 706.904 482.597 548.171C482.597 389.437 517.215 260.753 642.042 260.753C766.868 260.753 801.487 389.43 801.487 548.163C801.487 706.897 769.535 835.573 642.042 835.573V835.581Z" fill="url(#paint3_linear_569_44)"/>
<path d="M669.911 824.001H616.306V836.382H669.911V824.001Z" fill="url(#paint4_linear_569_44)"/>
<path d="M669.911 260.461H616.306V272.475H669.911V260.461Z" fill="url(#paint5_linear_569_44)"/>
<path fill-rule="evenodd" clip-rule="evenodd" d="M802.168 835.783H1440.31V547.886H802.168V835.783ZM1439.77 691.835C1439.77 805.621 1297.15 834.884 1121.23 834.884C945.316 834.884 802.701 803.824 802.701 691.835C802.701 579.846 945.316 548.785 1121.23 548.785C1297.15 548.785 1439.77 577.456 1439.77 691.835Z" fill="url(#paint6_linear_569_44)"/>
<path d="M1148.55 823.716H1094.83V836.097H1148.55V823.716Z" fill="url(#paint7_linear_569_44)"/>
<path d="M1148.55 548.695H1094.83V560.147H1148.55V548.695Z" fill="url(#paint8_linear_569_44)"/>
<g clip-path="url(#clip0_569_44)">
<path fill-rule="evenodd" clip-rule="evenodd" d="M481.6 1124.23V2318.8H963.426V1124.23H481.6ZM722.513 2317.79C532.082 2317.79 483.098 2050.83 483.098 1721.52C483.098 1392.2 535.078 1125.23 722.513 1125.23C909.948 1125.23 961.928 1392.19 961.928 1721.51C961.928 2050.82 913.947 2317.79 722.513 2317.79V2317.79Z" fill="url(#paint9_linear_569_44)"/>
<path d="M755.514 2307.02H701.908V2319.04H755.514V2307.02Z" fill="url(#paint10_linear_569_44)"/>
<path d="M755.514 1124.47H701.908V1137.32H755.514V1124.47Z" fill="url(#paint11_linear_569_44)"/>
<path fill-rule="evenodd" clip-rule="evenodd" d="M798.423 2606.48H1438.06V2318.87H798.423V2606.48ZM1437.53 2462.68C1437.53 2576.35 1294.58 2605.59 1118.24 2605.59C941.908 2605.59 798.957 2574.56 798.957 2462.68C798.957 2350.8 941.908 2319.77 1118.24 2319.77C1294.58 2319.77 1437.53 2348.41 1437.53 2462.68Z" fill="url(#paint12_linear_569_44)"/>
</g>
<g clip-path="url(#clip1_569_44)">
<path fill-rule="evenodd" clip-rule="evenodd" d="M963.201 1124.23V1461.28H1170.67V1124.23H963.201ZM1066.94 1460.99C984.941 1460.99 963.846 1385.67 963.846 1292.76C963.846 1199.84 986.231 1124.52 1066.94 1124.52C1146.78 1124.52 1170.03 1199.84 1170.03 1292.76C1170.03 1385.68 1149.36 1460.99 1066.94 1460.99Z" fill="url(#paint13_linear_569_44)"/>
<path d="M1094.11 1450.04H1040.35V1461.28H1094.11V1450.04Z" fill="url(#paint14_linear_569_44)"/>
<path d="M1094.11 1124.23H1040.35V1135.47H1094.11V1124.23Z" fill="url(#paint15_linear_569_44)"/>
</g>
<g clip-path="url(#clip2_569_44)">
<path d="M1224.04 1587.02H1178.84V1596.11H1224.04V1587.02Z" fill="url(#paint16_linear_569_44)"/>
<path d="M1224.04 1461.44H1178.84V1469.85H1224.04V1461.44Z" fill="url(#paint17_linear_569_44)"/>
<path fill-rule="evenodd" clip-rule="evenodd" d="M963.201 1461.28V1596.08H1440.31V1461.28H963.201ZM1201.76 1595.97C1013.19 1595.97 964.691 1565.84 964.691 1528.68C964.684 1491.52 1016.16 1461.39 1201.76 1461.39C1385.38 1461.39 1438.82 1491.52 1438.82 1528.68C1438.82 1565.84 1391.31 1595.97 1201.76 1595.97Z" fill="url(#paint18_linear_569_44)"/>
</g>
<g clip-path="url(#clip3_569_44)">
<path fill-rule="evenodd" clip-rule="evenodd" d="M963.201 1596.1V1864.24H1318.97V1596.1H963.201ZM1141.09 1864.01C1000.48 1864.01 964.308 1804.09 964.308 1730.17C964.308 1656.24 1002.69 1596.32 1141.09 1596.32C1278.01 1596.32 1317.86 1656.24 1317.86 1730.16C1317.86 1804.08 1282.43 1864.01 1141.09 1864.01V1864.01Z" fill="url(#paint19_linear_569_44)"/>
</g>
<g clip-path="url(#clip4_569_44)">
<path fill-rule="evenodd" clip-rule="evenodd" d="M159.535 2318.87V2891.85H481.601V2318.87H159.535ZM320.568 2891.37C193.278 2891.37 160.537 2763.33 160.537 2605.37C160.537 2447.4 195.282 2319.35 320.568 2319.35C444.517 2319.35 480.598 2447.4 480.598 2605.35C480.598 2763.31 448.526 2891.36 320.568 2891.36V2891.37Z" fill="url(#paint20_linear_569_44)"/>
<path d="M347.365 2880.62H293.604V2891.85H347.365V2880.62Z" fill="url(#paint21_linear_569_44)"/>
<path d="M347.365 2318.87H293.604V2330.11H347.365V2318.87Z" fill="url(#paint22_linear_569_44)"/>
</g>
<g clip-path="url(#clip5_569_44)">
<path fill-rule="evenodd" clip-rule="evenodd" d="M963.201 2136.12L1318.97 2136.12L1318.97 1864.24L963.201 1864.24L963.201 2136.12ZM1318.68 2000.18C1318.68 2107.63 1239.17 2135.27 1141.09 2135.27C1043 2135.27 963.497 2105.94 963.497 2000.18C963.497 1895.54 1043 1865.08 1141.08 1865.08C1239.16 1865.08 1318.67 1892.16 1318.67 2000.18L1318.68 2000.18Z" fill="url(#paint23_linear_569_44)"/>
<path d="M1168.42 2127.13H1114.5V2136.12H1168.42V2127.13Z" fill="url(#paint24_linear_569_44)"/>
<path d="M1168.42 1864.24H1114.5V1873.22H1168.42V1864.24Z" fill="url(#paint25_linear_569_44)"/>
</g>
<path fill-rule="evenodd" clip-rule="evenodd" d="M481.6 2318.87V2606.49H798.491V2318.87H481.6ZM640.042 2606.24C514.804 2606.24 482.587 2541.96 482.587 2462.68C482.587 2383.39 516.77 2319.11 640.042 2319.11C763.314 2319.11 797.496 2383.39 797.496 2462.68C797.496 2541.97 765.94 2606.25 640.042 2606.25V2606.24Z" fill="url(#paint26_linear_569_44)"/>
<path fill-rule="evenodd" clip-rule="evenodd" d="M798.423 2606.77H1440.31V2318.87H798.423V2606.77ZM1439.77 2462.82C1439.77 2576.61 1296.32 2605.87 1119.37 2605.87C942.412 2605.87 798.958 2574.81 798.958 2462.82C798.958 2350.83 942.412 2319.77 1119.37 2319.77C1296.32 2319.77 1439.77 2348.44 1439.77 2462.82Z" fill="url(#paint27_linear_569_44)"/>
<defs>
<linearGradient id="paint0_linear_569_44" x1="0" y1="489.504" x2="482" y2="489.504" gradientUnits="userSpaceOnUse">
<stop stop-color="#0949FF"/>
<stop offset="0.12" stop-color="#0BA1F4"/>
<stop offset="0.23" stop-color="#0ED2EB"/>
<stop offset="0.38" stop-color="#11FFE2"/>
<stop offset="0.86" stop-color="#FFFF00"/>
<stop offset="1" stop-color="#B5FF00"/>
</linearGradient>
<linearGradient id="paint1_linear_569_44" x1="213.919" y1="973.007" x2="267.524" y2="973.007" gradientUnits="userSpaceOnUse">
<stop stop-color="#989898"/>
<stop offset="0.54" stop-color="white"/>
<stop offset="1" stop-color="#CBCBCB"/>
</linearGradient>
<linearGradient id="paint2_linear_569_44" x1="213.837" y1="6.00691" x2="267.442" y2="6.00691" gradientUnits="userSpaceOnUse">
<stop stop-color="#989898"/>
<stop offset="0.54" stop-color="white"/>
<stop offset="1" stop-color="#CBCBCB"/>
</linearGradient>
<linearGradient id="paint3_linear_569_44" x1="481.6" y1="548.171" x2="802.483" y2="548.171" gradientUnits="userSpaceOnUse">
<stop stop-color="#0949FF"/>
<stop offset="0.12" stop-color="#0BA1F4"/>
<stop offset="0.23" stop-color="#0ED2EB"/>
<stop offset="0.38" stop-color="#11FFE2"/>
<stop offset="0.86" stop-color="#FFFF00"/>
<stop offset="1" stop-color="#B5FF00"/>
</linearGradient>
<linearGradient id="paint4_linear_569_44" x1="616.306" y1="830.195" x2="669.911" y2="830.195" gradientUnits="userSpaceOnUse">
<stop stop-color="#989898"/>
<stop offset="0.54" stop-color="white"/>
<stop offset="1" stop-color="#CBCBCB"/>
</linearGradient>
<linearGradient id="paint5_linear_569_44" x1="616.306" y1="266.468" x2="669.911" y2="266.468" gradientUnits="userSpaceOnUse">
<stop stop-color="#989898"/>
<stop offset="0.54" stop-color="white"/>
<stop offset="1" stop-color="#CBCBCB"/>
</linearGradient>
<linearGradient id="paint6_linear_569_44" x1="1121.24" y1="835.783" x2="1121.24" y2="547.886" gradientUnits="userSpaceOnUse">
<stop stop-color="#0949FF"/>
<stop offset="0.12" stop-color="#0BA1F4"/>
<stop offset="0.23" stop-color="#0ED2EB"/>
<stop offset="0.38" stop-color="#11FFE2"/>
<stop offset="0.86" stop-color="#FFFF00"/>
<stop offset="1" stop-color="#B5FF00"/>
</linearGradient>
<linearGradient id="paint7_linear_569_44" x1="1094.83" y1="829.91" x2="1148.56" y2="829.91" gradientUnits="userSpaceOnUse">
<stop stop-color="#989898"/>
<stop offset="0.54" stop-color="white"/>
<stop offset="1" stop-color="#CBCBCB"/>
</linearGradient>
<linearGradient id="paint8_linear_569_44" x1="1094.83" y1="554.425" x2="1148.56" y2="554.425" gradientUnits="userSpaceOnUse">
<stop stop-color="#989898"/>
<stop offset="0.54" stop-color="white"/>
<stop offset="1" stop-color="#CBCBCB"/>
</linearGradient>
<linearGradient id="paint9_linear_569_44" x1="481.6" y1="1721.52" x2="963.426" y2="1721.52" gradientUnits="userSpaceOnUse">
<stop stop-color="#0949FF"/>
<stop offset="0.12" stop-color="#0BA1F4"/>
<stop offset="0.23" stop-color="#0ED2EB"/>
<stop offset="0.38" stop-color="#11FFE2"/>
<stop offset="0.86" stop-color="#FFFF00"/>
<stop offset="1" stop-color="#B5FF00"/>
</linearGradient>
<linearGradient id="paint10_linear_569_44" x1="701.908" y1="2313.03" x2="755.514" y2="2313.03" gradientUnits="userSpaceOnUse">
<stop stop-color="#989898"/>
<stop offset="0.54" stop-color="white"/>
<stop offset="1" stop-color="#CBCBCB"/>
</linearGradient>
<linearGradient id="paint11_linear_569_44" x1="481.601" y1="1130.89" x2="482.35" y2="1130.89" gradientUnits="userSpaceOnUse">
<stop stop-color="#989898"/>
<stop offset="0.54" stop-color="white"/>
<stop offset="1" stop-color="#CBCBCB"/>
</linearGradient>
<linearGradient id="paint12_linear_569_44" x1="1118.24" y1="2606.48" x2="1118.24" y2="2318.87" gradientUnits="userSpaceOnUse">
<stop stop-color="#989898"/>
<stop offset="0.29" stop-color="white"/>
<stop offset="0.78" stop-color="white"/>
<stop offset="1" stop-color="#CBCBCB"/>
</linearGradient>
<linearGradient id="paint13_linear_569_44" x1="963.201" y1="1292.76" x2="1170.67" y2="1292.76" gradientUnits="userSpaceOnUse">
<stop stop-color="#0949FF"/>
<stop offset="0.12" stop-color="#0BA1F4"/>
<stop offset="0.23" stop-color="#0ED2EB"/>
<stop offset="0.38" stop-color="#11FFE2"/>
<stop offset="0.86" stop-color="#FFFF00"/>
<stop offset="1" stop-color="#B5FF00"/>
</linearGradient>
<linearGradient id="paint14_linear_569_44" x1="1040.35" y1="1455.66" x2="1094.11" y2="1455.66" gradientUnits="userSpaceOnUse">
<stop stop-color="#989898"/>
<stop offset="0.54" stop-color="white"/>
<stop offset="1" stop-color="#CBCBCB"/>
</linearGradient>
<linearGradient id="paint15_linear_569_44" x1="1040.35" y1="1129.85" x2="1094.11" y2="1129.85" gradientUnits="userSpaceOnUse">
<stop stop-color="#989898"/>
<stop offset="0.54" stop-color="white"/>
<stop offset="1" stop-color="#CBCBCB"/>
</linearGradient>
<linearGradient id="paint16_linear_569_44" x1="1178.84" y1="1591.56" x2="1224.04" y2="1591.56" gradientUnits="userSpaceOnUse">
<stop stop-color="#989898"/>
<stop offset="0.54" stop-color="white"/>
<stop offset="1" stop-color="#CBCBCB"/>
</linearGradient>
<linearGradient id="paint17_linear_569_44" x1="1178.84" y1="1465.64" x2="1224.04" y2="1465.64" gradientUnits="userSpaceOnUse">
<stop stop-color="#989898"/>
<stop offset="0.54" stop-color="white"/>
<stop offset="1" stop-color="#CBCBCB"/>
</linearGradient>
<linearGradient id="paint18_linear_569_44" x1="963.201" y1="1528.67" x2="1440.31" y2="1528.67" gradientUnits="userSpaceOnUse">
<stop stop-color="#E5E5E5"/>
<stop offset="0.23" stop-color="white"/>
<stop offset="1" stop-color="#CBCBCB"/>
</linearGradient>
<linearGradient id="paint19_linear_569_44" x1="963.201" y1="1730.16" x2="1318.97" y2="1730.16" gradientUnits="userSpaceOnUse">
<stop stop-color="#0949FF"/>
<stop offset="0.12" stop-color="#0BA1F4"/>
<stop offset="0.23" stop-color="#0ED2EB"/>
<stop offset="0.38" stop-color="#11FFE2"/>
<stop offset="0.86" stop-color="#FFFF00"/>
<stop offset="1" stop-color="#B5FF00"/>
</linearGradient>
<linearGradient id="paint20_linear_569_44" x1="159.535" y1="2605.35" x2="481.601" y2="2605.35" gradientUnits="userSpaceOnUse">
<stop stop-color="#0949FF"/>
<stop offset="0.12" stop-color="#0BA1F4"/>
<stop offset="0.23" stop-color="#0ED2EB"/>
<stop offset="0.38" stop-color="#11FFE2"/>
<stop offset="0.86" stop-color="#FFFF00"/>
<stop offset="1" stop-color="#B5FF00"/>
</linearGradient>
<linearGradient id="paint21_linear_569_44" x1="293.604" y1="2886.23" x2="347.365" y2="2886.23" gradientUnits="userSpaceOnUse">
<stop stop-color="#989898"/>
<stop offset="0.54" stop-color="white"/>
<stop offset="1" stop-color="#CBCBCB"/>
</linearGradient>
<linearGradient id="paint22_linear_569_44" x1="293.604" y1="2324.49" x2="347.365" y2="2324.49" gradientUnits="userSpaceOnUse">
<stop stop-color="#989898"/>
<stop offset="0.54" stop-color="white"/>
<stop offset="1" stop-color="#CBCBCB"/>
</linearGradient>
<linearGradient id="paint23_linear_569_44" x1="1141.08" y1="2136.12" x2="1141.08" y2="1864.24" gradientUnits="userSpaceOnUse">
<stop stop-color="#0949FF"/>
<stop offset="0.12" stop-color="#0BA1F4"/>
<stop offset="0.23" stop-color="#0ED2EB"/>
<stop offset="0.38" stop-color="#11FFE2"/>
<stop offset="0.86" stop-color="#FFFF00"/>
<stop offset="1" stop-color="#B5FF00"/>
</linearGradient>
<linearGradient id="paint24_linear_569_44" x1="1114.5" y1="2131.63" x2="1168.42" y2="2131.63" gradientUnits="userSpaceOnUse">
<stop stop-color="#989898"/>
<stop offset="0.54" stop-color="white"/>
<stop offset="1" stop-color="#CBCBCB"/>
</linearGradient>
<linearGradient id="paint25_linear_569_44" x1="1114.5" y1="1868.73" x2="1168.42" y2="1868.73" gradientUnits="userSpaceOnUse">
<stop stop-color="#989898"/>
<stop offset="0.54" stop-color="white"/>
<stop offset="1" stop-color="#CBCBCB"/>
</linearGradient>
<linearGradient id="paint26_linear_569_44" x1="481.6" y1="2462.68" x2="798.491" y2="2462.68" gradientUnits="userSpaceOnUse">
<stop stop-color="#989898"/>
<stop offset="0.29" stop-color="white"/>
<stop offset="0.78" stop-color="white"/>
<stop offset="1" stop-color="#CBCBCB"/>
</linearGradient>
<linearGradient id="paint27_linear_569_44" x1="1119.37" y1="2606.76" x2="1119.37" y2="2318.87" gradientUnits="userSpaceOnUse">
<stop stop-color="#989898"/>
<stop offset="0.29" stop-color="white"/>
<stop offset="0.78" stop-color="white"/>
<stop offset="1" stop-color="#CBCBCB"/>
</linearGradient>
<clipPath id="clip0_569_44">
<rect width="481.825" height="1194.8" fill="white" transform="translate(481.6 1124.23)"/>
</clipPath>
<clipPath id="clip1_569_44">
<rect width="207.47" height="337.045" fill="white" transform="translate(963.201 1124.23)"/>
</clipPath>
<clipPath id="clip2_569_44">
<rect width="477.107" height="134.818" fill="white" transform="translate(963.201 1461.28)"/>
</clipPath>
<clipPath id="clip3_569_44">
<rect width="355.77" height="268.138" fill="white" transform="translate(963.201 1596.1)"/>
</clipPath>
<clipPath id="clip4_569_44">
<rect width="322.066" height="572.977" fill="white" transform="translate(159.535 2318.87)"/>
</clipPath>
<clipPath id="clip5_569_44">
<rect width="271.883" height="355.77" fill="white" transform="translate(963.201 2136.12) rotate(-90)"/>
</clipPath>
</defs>
</svg>
