<svg width="298" height="562" viewBox="0 0 298 562" fill="none" xmlns="http://www.w3.org/2000/svg">
<g filter="url(#filter0_f_510_281)">
<path d="M64.3585 373.514C61.8643 397.28 46.877 463.296 46.877 476.5C46.877 489.705 30.2944 505.449 26.1001 509.463C21.9057 513.47 12.813 531.289 26.1001 531.618C39.3871 531.956 58.5838 547.13 57.7224 531.618C56.8611 516.107 74.3425 487.061 74.3425 455.379C74.3425 423.696 100.078 318.433 111.762 318.576C125.783 318.748 139.28 357.673 139.28 370.878C139.28 418.484 166.753 481.781 169.247 502.91C171.741 524.031 196.72 561.001 209.206 531.955C221.691 502.91 204.21 479.144 199.214 458.015C194.218 436.894 179.239 423.689 169.247 389.363C159.255 355.037 144.276 323.347 144.276 294.301C144.276 265.255 139.153 207.778 144.276 193.959C149.399 180.14 149.271 117.382 161.757 93.6166C167.18 83.2955 189.53 38.7905 214.201 40.8053C233.473 42.3782 279.131 86.3888 279.131 72.4951V41.5318C279.131 27.6006 259.156 43.4417 256.654 27.6006C254.16 11.7595 246.663 14.3959 214.201 14.3959C181.74 14.3959 179.239 6.47158 154.267 51.366C129.296 96.253 126.794 122.662 121.799 133.223C116.803 143.784 143.781 294.75 104.317 289.021C79.1061 285.358 78.0949 243.999 78.0949 209.673C78.0949 175.346 73.1591 159.932 73.7508 151.858C74.3425 143.784 91.8314 104.177 91.8314 88.3287C91.8314 72.4801 109.313 38.1539 96.8272 32.8735C84.3415 27.5931 64.3585 22.3127 51.8728 22.3127C39.3871 22.3127 31.8972 22.3127 26.9015 38.1539C21.9057 53.995 41.8888 61.9193 44.3829 83.0408C46.877 104.162 46.877 162.261 46.877 178.103C46.877 193.944 56.8686 233.558 56.8686 249.399C56.8686 265.24 79.3458 291.65 76.8441 310.135C74.35 328.62 66.8526 349.741 64.3585 373.507V373.514Z" fill="#70F7FF"/>
</g>
<defs>
<filter id="filter0_f_510_281" x="0.423201" y="-4.8683" width="297.433" height="566.256" filterUnits="userSpaceOnUse" color-interpolation-filters="sRGB">
<feFlood flood-opacity="0" result="BackgroundImageFix"/>
<feBlend mode="normal" in="SourceGraphic" in2="BackgroundImageFix" result="shape"/>
<feGaussianBlur stdDeviation="9.36237" result="effect1_foregroundBlur_510_281"/>
</filter>
</defs>
</svg>
