<svg width="215" height="261" viewBox="0 0 215 261" fill="none" xmlns="http://www.w3.org/2000/svg">
<g filter="url(#filter0_f_510_277)">
<path d="M192.446 160.714C190.468 119.685 174.62 102.78 171.646 85.7855C168.673 68.7909 161.745 29.806 157.43 23.8066C153.116 17.8072 146.885 20.8106 137.874 15.8074C128.864 10.8116 120.573 15.8299 121.134 23.8066C122.123 37.7977 158.764 62.7915 158.569 78.4978C158.374 94.2042 171.639 141.765 171.639 162.759C171.639 183.753 172.627 227.734 163.377 235.628C154.127 243.515 185.503 235.733 192.438 235.628C199.374 235.524 194.416 201.744 192.438 160.714H192.446Z" fill="#70F7FF"/>
<path d="M130.579 123.31C120.153 123.774 91.4295 120.778 79.5505 113.783C67.6641 106.787 44.8873 103.784 44.8873 83.7931C44.8873 63.8025 46.8646 32.8093 45.8759 24.8176C44.8873 16.8259 47.8982 0.999713 31.5403 6.90924C24.4473 9.4633 17.9686 14.489 20.0358 24.6528C22.1105 34.8091 30.986 87.8975 33.4802 97.8366C35.9743 107.783 44.7674 125.744 44.333 136.252C43.8986 146.761 41.1124 202.957 38.5433 212.35C35.9743 221.742 40.6555 230.423 62.5784 236.078C84.5013 241.733 124.003 243.126 132.474 238.931C140.945 234.737 156.3 216.222 157.041 203.983C157.783 191.752 157.288 164.579 157.041 156.67C156.794 148.76 141.005 122.838 130.579 123.302V123.31ZM132.939 216.454C132.939 216.454 128.317 223.053 114.88 224.603C101.443 226.154 73.9556 224.993 68.1958 224.603C62.4361 224.214 51.8978 210.402 50.4373 202.875C48.9393 195.115 48.063 175.342 50.4373 166.085C53.4407 154.378 57.9347 150.506 75.9404 142.746C101.159 131.878 117.749 136.926 122.348 142.746C126.939 148.566 139.627 168.803 139.365 181.117C138.945 200.943 138.945 212.582 132.939 216.462V216.454Z" fill="#70F7FF"/>
</g>
<defs>
<filter id="filter0_f_510_277" x="0.920637" y="-13.1076" width="213.813" height="273.2" filterUnits="userSpaceOnUse" color-interpolation-filters="sRGB">
<feFlood flood-opacity="0" result="BackgroundImageFix"/>
<feBlend mode="normal" in="SourceGraphic" in2="BackgroundImageFix" result="shape"/>
<feGaussianBlur stdDeviation="9.36237" result="effect1_foregroundBlur_510_277"/>
</filter>
</defs>
</svg>
