<svg width="1440" height="980" viewBox="0 0 1440 980" fill="none" xmlns="http://www.w3.org/2000/svg">
<path fill-rule="evenodd" clip-rule="evenodd" d="M0 0V979H482V0H0ZM241 978.183C50.5002 978.183 1.49852 759.39 1.49852 489.504C1.49852 219.618 53.4973 0.816701 241 0.816701C428.503 0.816701 480.501 219.61 480.501 489.496C480.501 759.382 432.504 978.176 241 978.176V978.183Z" fill="url(#paint0_linear_538_1964)"/>
<path d="M267.524 967H213.919V979.014H267.524V967Z" fill="url(#paint1_linear_538_1964)"/>
<path d="M267.442 0H213.837V12.0138H267.442V0Z" fill="url(#paint2_linear_538_1964)"/>
<path fill-rule="evenodd" clip-rule="evenodd" d="M481.6 260.274V836.06H802.483V260.274H481.6ZM642.042 835.581C515.223 835.581 482.597 706.904 482.597 548.171C482.597 389.437 517.215 260.753 642.042 260.753C766.868 260.753 801.487 389.43 801.487 548.163C801.487 706.897 769.535 835.573 642.042 835.573V835.581Z" fill="url(#paint3_linear_538_1964)"/>
<path d="M669.911 824.001H616.306V836.382H669.911V824.001Z" fill="url(#paint4_linear_538_1964)"/>
<path d="M669.911 260.461H616.306V272.475H669.911V260.461Z" fill="url(#paint5_linear_538_1964)"/>
<path fill-rule="evenodd" clip-rule="evenodd" d="M802.168 835.783H1440.31V547.886H802.168V835.783ZM1439.77 691.835C1439.77 805.621 1297.15 834.884 1121.23 834.884C945.316 834.884 802.701 803.824 802.701 691.835C802.701 579.846 945.316 548.785 1121.23 548.785C1297.15 548.785 1439.77 577.456 1439.77 691.835Z" fill="url(#paint6_linear_538_1964)"/>
<path d="M1148.55 823.716H1094.83V836.097H1148.55V823.716Z" fill="url(#paint7_linear_538_1964)"/>
<path d="M1148.55 548.695H1094.83V560.147H1148.55V548.695Z" fill="url(#paint8_linear_538_1964)"/>
<defs>
<linearGradient id="paint0_linear_538_1964" x1="0" y1="489.504" x2="482" y2="489.504" gradientUnits="userSpaceOnUse">
<stop stop-color="#0949FF"/>
<stop offset="0.12" stop-color="#0BA1F4"/>
<stop offset="0.23" stop-color="#0ED2EB"/>
<stop offset="0.38" stop-color="#11FFE2"/>
<stop offset="0.86" stop-color="#FFFF00"/>
<stop offset="1" stop-color="#B5FF00"/>
</linearGradient>
<linearGradient id="paint1_linear_538_1964" x1="213.919" y1="973.007" x2="267.524" y2="973.007" gradientUnits="userSpaceOnUse">
<stop stop-color="#989898"/>
<stop offset="0.54" stop-color="white"/>
<stop offset="1" stop-color="#CBCBCB"/>
</linearGradient>
<linearGradient id="paint2_linear_538_1964" x1="213.837" y1="6.00691" x2="267.442" y2="6.00691" gradientUnits="userSpaceOnUse">
<stop stop-color="#989898"/>
<stop offset="0.54" stop-color="white"/>
<stop offset="1" stop-color="#CBCBCB"/>
</linearGradient>
<linearGradient id="paint3_linear_538_1964" x1="481.6" y1="548.171" x2="802.483" y2="548.171" gradientUnits="userSpaceOnUse">
<stop stop-color="#0949FF"/>
<stop offset="0.12" stop-color="#0BA1F4"/>
<stop offset="0.23" stop-color="#0ED2EB"/>
<stop offset="0.38" stop-color="#11FFE2"/>
<stop offset="0.86" stop-color="#FFFF00"/>
<stop offset="1" stop-color="#B5FF00"/>
</linearGradient>
<linearGradient id="paint4_linear_538_1964" x1="616.306" y1="830.195" x2="669.911" y2="830.195" gradientUnits="userSpaceOnUse">
<stop stop-color="#989898"/>
<stop offset="0.54" stop-color="white"/>
<stop offset="1" stop-color="#CBCBCB"/>
</linearGradient>
<linearGradient id="paint5_linear_538_1964" x1="616.306" y1="266.468" x2="669.911" y2="266.468" gradientUnits="userSpaceOnUse">
<stop stop-color="#989898"/>
<stop offset="0.54" stop-color="white"/>
<stop offset="1" stop-color="#CBCBCB"/>
</linearGradient>
<linearGradient id="paint6_linear_538_1964" x1="1121.24" y1="835.783" x2="1121.24" y2="547.886" gradientUnits="userSpaceOnUse">
<stop stop-color="#0949FF"/>
<stop offset="0.12" stop-color="#0BA1F4"/>
<stop offset="0.23" stop-color="#0ED2EB"/>
<stop offset="0.38" stop-color="#11FFE2"/>
<stop offset="0.86" stop-color="#FFFF00"/>
<stop offset="1" stop-color="#B5FF00"/>
</linearGradient>
<linearGradient id="paint7_linear_538_1964" x1="1094.83" y1="829.91" x2="1148.56" y2="829.91" gradientUnits="userSpaceOnUse">
<stop stop-color="#989898"/>
<stop offset="0.54" stop-color="white"/>
<stop offset="1" stop-color="#CBCBCB"/>
</linearGradient>
<linearGradient id="paint8_linear_538_1964" x1="1094.83" y1="554.425" x2="1148.56" y2="554.425" gradientUnits="userSpaceOnUse">
<stop stop-color="#989898"/>
<stop offset="0.54" stop-color="white"/>
<stop offset="1" stop-color="#CBCBCB"/>
</linearGradient>
</defs>
</svg>
