<svg width="192" height="258" viewBox="0 0 192 258" fill="none" xmlns="http://www.w3.org/2000/svg">
<g filter="url(#filter0_f_510_275)">
<path d="M133.042 30.9081C125.545 23.1485 101.532 14.6849 89.5411 15.3965C56.5406 17.3289 44.5418 36.7277 43.0438 54.1867C41.5458 71.6456 38.5424 75.5254 32.543 85.2248C26.5436 94.9242 20.2745 113.859 19.0462 135.662C17.8104 157.465 22.0496 188.039 28.049 207.43C34.0485 226.829 46.0473 238.468 65.551 238.468C85.0547 238.468 116.55 234.588 137.551 222.949C158.553 211.31 163.054 197.731 169.054 188.031C175.053 178.332 173.555 141.474 161.556 129.842C149.558 118.203 142.06 114.323 140.555 102.684C139.454 94.1303 145.056 77.4653 145.056 65.826C145.056 54.1867 140.555 38.6676 133.057 30.9081H133.042ZM64.0455 102.684C64.0455 102.684 56.5481 85.2248 56.5481 71.6456C56.5481 58.0664 62.5475 36.7277 79.0478 30.9081C95.548 25.0884 103.877 28.9682 107.959 30.9081C112.041 32.8479 131.515 44.4872 131.515 54.1867C131.515 63.8861 133.012 79.4051 125.515 91.0444C118.018 102.684 113.546 106.564 103.045 108.503C92.5446 110.443 85.0472 114.323 80.5458 116.263C76.0443 118.203 70.0449 120.143 64.0455 102.684ZM157.048 145.361C158.546 153.121 159.422 172.894 157.048 182.152C154.044 193.858 149.55 197.731 131.544 205.49C106.326 216.358 89.7359 211.31 85.1371 205.49C80.5457 199.67 67.8579 179.433 68.12 167.119C68.5469 147.294 68.5469 135.654 74.5463 131.775C74.5463 131.775 79.1676 125.176 92.6045 123.626C106.041 122.075 133.529 123.236 139.289 123.626C145.049 124.015 155.587 137.826 157.048 145.354V145.361Z" fill="#70F7FF"/>
</g>
<defs>
<filter id="filter0_f_510_275" x="0.10655" y="-3.37026" width="191.1" height="260.563" filterUnits="userSpaceOnUse" color-interpolation-filters="sRGB">
<feFlood flood-opacity="0" result="BackgroundImageFix"/>
<feBlend mode="normal" in="SourceGraphic" in2="BackgroundImageFix" result="shape"/>
<feGaussianBlur stdDeviation="9.36237" result="effect1_foregroundBlur_510_275"/>
</filter>
</defs>
</svg>
