<svg width="185" height="254" viewBox="0 0 185 254" fill="none" xmlns="http://www.w3.org/2000/svg">
<g filter="url(#filter0_d_510_291)">
<path d="M130.043 30.9081C122.545 23.1485 98.5326 14.6849 86.5412 15.3965C53.5407 17.3289 41.5419 36.7277 40.0439 54.1867C38.546 71.6456 35.5425 75.5254 29.5431 85.2248C23.5437 94.9242 17.2746 113.859 16.0463 135.662C14.8105 157.465 19.0498 188.039 25.0492 207.43C31.0486 226.829 43.0474 238.468 62.5511 238.468C82.0548 238.468 113.55 234.588 134.551 222.949C155.553 211.31 160.055 197.731 166.054 188.031C172.053 178.332 170.555 141.474 158.557 129.842C146.558 118.203 139.06 114.323 137.555 102.684C136.454 94.1303 142.056 77.4653 142.056 65.826C142.056 54.1867 137.555 38.6676 130.058 30.9081H130.043ZM61.0456 102.684C61.0456 102.684 53.5482 85.2248 53.5482 71.6456C53.5482 58.0664 59.5476 36.7277 76.0479 30.9081C92.5481 25.0884 100.877 28.9682 104.959 30.9081C109.041 32.8479 128.515 44.4872 128.515 54.1867C128.515 63.8861 130.013 79.4051 122.515 91.0444C115.018 102.684 110.546 106.564 100.046 108.503C89.5447 110.443 82.0473 114.323 77.5459 116.263C73.0444 118.203 67.045 120.143 61.0456 102.684ZM154.048 145.361C155.546 153.121 156.422 172.894 154.048 182.152C151.044 193.858 146.55 197.731 128.545 205.49C103.326 216.358 86.736 211.31 82.1372 205.49C77.5459 199.67 64.858 179.433 65.1201 167.119C65.5471 147.294 65.5471 135.654 71.5465 131.775C71.5465 131.775 76.1677 125.176 89.6046 123.626C103.041 122.075 130.529 123.236 136.289 123.626C142.049 124.015 152.587 137.826 154.048 145.354V145.361Z" fill="#0951FF"/>
</g>
<defs>
<filter id="filter0_d_510_291" x="0.831421" y="0.354492" width="183.651" height="253.114" filterUnits="userSpaceOnUse" color-interpolation-filters="sRGB">
<feFlood flood-opacity="0" result="BackgroundImageFix"/>
<feColorMatrix in="SourceAlpha" type="matrix" values="0 0 0 0 0 0 0 0 0 0 0 0 0 0 0 0 0 0 127 0" result="hardAlpha"/>
<feOffset/>
<feGaussianBlur stdDeviation="7.5"/>
<feComposite in2="hardAlpha" operator="out"/>
<feColorMatrix type="matrix" values="0 0 0 0 0.0917152 0 0 0 0 0.948973 0 0 0 0 1 0 0 0 1 0"/>
<feBlend mode="normal" in2="BackgroundImageFix" result="effect1_dropShadow_510_291"/>
<feBlend mode="normal" in="SourceGraphic" in2="effect1_dropShadow_510_291" result="shape"/>
</filter>
</defs>
</svg>
