<svg width="155" height="224" viewBox="0 0 155 224" fill="none" xmlns="http://www.w3.org/2000/svg">
<path d="M115.043 15.9081C107.545 8.14852 83.5326 -0.315068 71.5412 0.396472C38.5407 2.32887 26.5419 21.7277 25.0439 39.1867C23.546 56.6456 20.5425 60.5254 14.5431 70.2248C8.5437 79.9242 2.27465 98.8587 1.04631 120.662C-0.189527 142.465 4.04976 173.039 10.0492 192.43C16.0486 211.829 28.0474 223.468 47.5511 223.468C67.0548 223.468 98.5498 219.588 119.551 207.949C140.553 196.31 145.055 182.731 151.054 173.031C157.053 163.332 155.555 126.474 143.557 114.842C131.558 103.203 124.06 99.3231 122.555 87.6838C121.454 79.1303 127.056 62.4653 127.056 50.826C127.056 39.1867 122.555 23.6676 115.058 15.9081H115.043ZM46.0456 87.6838C46.0456 87.6838 38.5482 70.2248 38.5482 56.6456C38.5482 43.0664 44.5476 21.7277 61.0479 15.9081C77.5481 10.0884 85.8769 13.9682 89.9589 15.9081C94.0409 17.8479 113.515 29.4872 113.515 39.1867C113.515 48.8861 115.013 64.4051 107.515 76.0444C100.018 87.6838 95.5464 91.5635 85.0455 93.5034C74.5447 95.4433 67.0473 99.3231 62.5459 101.263C58.0444 103.203 52.045 105.143 46.0456 87.6838ZM139.048 130.361C140.546 138.121 141.422 157.894 139.048 167.152C136.044 178.858 131.55 182.731 113.545 190.49C88.3261 201.358 71.736 196.31 67.1372 190.49C62.5459 184.67 49.858 164.433 50.1201 152.119C50.5471 132.294 50.5471 120.654 56.5465 116.775C56.5465 116.775 61.1677 110.176 74.6046 108.626C88.0415 107.075 115.529 108.236 121.289 108.626C127.049 109.015 137.587 122.826 139.048 130.354V130.361Z" fill="#0951FF"/>
</svg>
