<svg width="308" height="232" viewBox="0 0 308 232" fill="none" xmlns="http://www.w3.org/2000/svg">
<path d="M292.418 150.137C276.569 153.133 249.838 172.128 251.815 149.141C253.793 126.147 257.905 91.7387 258.751 40.1782C259.552 -8.82817 227.945 -1.57045 180.519 5.19293C131.602 12.166 113.14 -4.86601 106.616 24.1648C100.227 52.5665 58.7107 169.132 48.3222 159.769C37.9337 150.407 37.9112 125.151 27.0209 129.78C16.1306 134.409 -2.6915 143.142 1.27066 154.212C5.23281 165.275 8.2063 194.126 13.8911 217.547C19.5835 240.96 47.753 228.115 47.753 228.115C60.5682 225.119 64.6502 226.115 81.6373 221.262C98.6244 216.408 56.7259 199.129 43.5661 184.284C30.4064 169.439 72.5745 172.135 76.7988 159.253C81.0231 146.37 151.803 165.14 186.458 170.135C221.122 175.131 248.849 172.135 250.827 188.126C252.804 204.117 253.8 233.111 270.413 231.628C287.025 230.145 310.251 237.11 307.278 221.112C304.305 205.121 308.267 147.141 292.426 150.137H292.418ZM158.589 129.121C142.74 124.125 136.299 110.643 134.875 101.685C125.595 43.1517 313.532 -51.94 197.349 128.14C189.222 140.738 174.437 134.117 158.589 129.113V129.121Z" fill="#0951FF"/>
</svg>
