<svg width="218" height="267" viewBox="0 0 218 267" fill="none" xmlns="http://www.w3.org/2000/svg">
<path d="M40.4522 219.649C13.7133 220.645 46.901 79.7005 45.9124 36.716C44.9162 -6.26107 35.0745 0.734501 13.2564 1.22883C-8.56166 1.73066 4.05132 95.5866 3.68432 134.13C3.3248 172.673 7.89364 184.791 10.0657 219.215C12.2378 253.638 2.17136 271.277 26.0192 265.959C49.867 260.641 190.677 15.8117 189.396 43.719C188.116 71.6264 143.558 268.281 160.785 265.959C193.576 261.54 212.675 275.636 211.686 245.647C210.698 215.657 211.761 142.428 211.724 113.57C211.686 84.7113 224.636 9.74485 211.724 8.7412C198.811 7.73756 183.397 34.7237 118.594 62.4138C89.4287 74.877 48.0021 139.358 35.449 180.672C28.1014 204.857 50.3164 219.29 40.4447 219.657L40.4522 219.649Z" fill="#0951FF"/>
</svg>
