<svg width="160" height="307" viewBox="0 0 160 307" fill="none" xmlns="http://www.w3.org/2000/svg">
<path d="M60.6581 1.39963C23.1487 16.4918 18.1005 51.7617 10.8728 88.5596C0.0723201 143.565 -4.12951 211.626 7.03793 234.905C21.7631 265.583 49.4832 308.313 74.9039 306.905C100.325 305.497 165.696 265.374 159 206.555C149.376 122.054 101.845 -15.168 60.6581 1.39963ZM121.416 106.303C140.306 144.629 145.002 185.951 127.198 228.119C109.395 270.287 93.7934 270.205 75.3833 270.991C56.9731 271.77 4.07942 248.184 16.595 137.349C29.1032 26.5133 78.177 39.7404 78.177 39.7404C95.8906 44.4441 102.527 67.9848 121.416 106.311V106.303Z" fill="#0951FF"/>
</svg>
