<svg width="261" height="530" viewBox="0 0 261 530" fill="none" xmlns="http://www.w3.org/2000/svg">
<path d="M45.3585 360.514C42.8643 384.28 27.877 450.296 27.877 463.5C27.877 476.705 11.2944 492.449 7.10006 496.463C2.90572 500.47 -6.18702 518.289 7.10006 518.618C20.3871 518.956 39.5838 534.13 38.7224 518.618C37.8611 503.107 55.3425 474.061 55.3425 442.379C55.3425 410.696 81.0778 305.433 92.762 305.576C106.783 305.748 120.28 344.673 120.28 357.878C120.28 405.484 147.753 468.781 150.247 489.91C152.741 511.031 177.72 548.001 190.206 518.955C202.691 489.91 185.21 466.144 180.214 445.015C175.218 423.894 160.239 410.689 150.247 376.363C140.255 342.037 125.276 310.347 125.276 281.301C125.276 252.255 120.153 194.778 125.276 180.959C130.399 167.14 130.271 104.382 142.757 80.6166C148.18 70.2955 170.53 25.7905 195.201 27.8053C214.473 29.3782 260.131 73.3888 260.131 59.4951V28.5318C260.131 14.6006 240.156 30.4417 237.654 14.6006C235.16 -1.24055 227.663 1.3959 195.201 1.3959C162.74 1.3959 160.239 -6.52842 135.267 38.366C110.296 83.253 107.794 109.662 102.799 120.223C97.8027 130.784 124.781 281.75 85.3171 276.021C60.1061 272.358 59.0949 230.999 59.0949 196.673C59.0949 162.346 54.1591 146.932 54.7508 138.858C55.3425 130.784 72.8314 91.1773 72.8314 75.3287C72.8314 59.4801 90.3128 25.1539 77.8272 19.8735C65.3415 14.5931 45.3585 9.31272 32.8728 9.31272C20.3871 9.31272 12.8972 9.31272 7.90148 25.1539C2.90572 40.995 22.8888 48.9193 25.3829 70.0408C27.877 91.1623 27.877 149.261 27.877 165.103C27.877 180.944 37.8686 220.558 37.8686 236.399C37.8686 252.24 60.3458 278.65 57.8441 297.135C55.35 315.62 47.8526 336.741 45.3585 360.507V360.514Z" fill="#0951FF"/>
</svg>
