<svg width="177" height="237" viewBox="0 0 177 237" fill="none" xmlns="http://www.w3.org/2000/svg">
<path d="M173.446 155.714C171.468 114.685 155.62 97.7801 152.646 80.7855C149.673 63.7909 142.745 24.806 138.43 18.8066C134.116 12.8072 127.885 15.8106 118.874 10.8074C109.864 5.81163 101.573 10.8299 102.134 18.8066C103.123 32.7977 139.764 57.7915 139.569 73.4978C139.374 89.2042 152.639 136.765 152.639 157.759C152.639 178.753 153.627 222.734 144.377 230.628C135.127 238.515 166.503 230.733 173.438 230.628C180.374 230.524 175.416 196.744 173.438 155.714H173.446Z" fill="#0951FF"/>
<path d="M111.579 118.31C101.153 118.774 72.4296 115.778 60.5506 108.783C48.6642 101.787 25.8874 98.7836 25.8874 78.7931C25.8874 58.8025 27.8647 27.8093 26.8761 19.8176C25.8874 11.8259 28.8983 -4.00029 12.5404 1.90924C5.44746 4.4633 -1.0313 9.48902 1.03591 19.6528C3.11061 29.8091 11.9861 82.8975 14.4803 92.8366C16.9744 102.783 25.7676 120.744 25.3331 131.252C24.8987 141.761 22.1125 197.957 19.5434 207.35C16.9744 216.742 21.6556 225.423 43.5785 231.078C65.5015 236.733 105.003 238.126 113.474 233.931C121.945 229.737 137.3 211.222 138.041 198.983C138.783 186.752 138.288 159.579 138.041 151.67C137.794 143.76 122.005 117.838 111.579 118.302V118.31ZM113.939 211.454C113.939 211.454 109.317 218.053 95.8805 219.603C82.4436 221.154 54.9557 219.993 49.196 219.603C43.4362 219.214 32.8979 205.402 31.4374 197.875C29.9394 190.115 29.0631 170.342 31.4374 161.085C34.4409 149.378 38.9348 145.506 56.9405 137.746C82.159 126.878 98.7491 131.926 103.348 137.746C107.939 143.566 120.627 163.803 120.365 176.117C119.946 195.943 119.946 207.582 113.939 211.462V211.454Z" fill="#0951FF"/>
</svg>
